<?xml version="1.0" encoding="utf-8"?>
<!-- Generator: Adobe Illustrator 27.1.1, SVG Export Plug-In . SVG Version: 6.00 Build 0)  -->
<svg version="1.1" id="Lager_1" xmlns="http://www.w3.org/2000/svg" xmlns:xlink="http://www.w3.org/1999/xlink" x="0px" y="0px"
	 viewBox="0 0 200 156.8" style="enable-background:new 0 0 200 156.8;" xml:space="preserve">
<style type="text/css">
	.st0{fill:#FDF4EC;}
	.st1{fill:#FFF7F0;}
	.st2{fill:#251301;}
	.st3{fill:#FFFAF5;}
	.st4{fill:#261400;}
	.st5{fill:#FF8800;}
</style>
<path class="st0" d="M0,62.8c0-3.3,2.7-6,6-6h188c3.3,0,6,2.7,6,6c0,51.9-42.1,94-94,94H94C42.1,156.8,0,114.7,0,62.8z"/>
<g>
	<path class="st1" d="M51.5,37.3c0,0-3.5-1.5-6.1-1c-2.6,0.6-3,2.1-3,2.1s-1.2,1,0.6,5.4c1.7,4.4,11.7,7,11.7,7L51.5,37.3z"/>
	<path class="st2" d="M55.7,52l-1.2-0.3C54,51.6,44,48.9,42.3,44.2c-1.6-4-1-5.5-0.5-6.1c0.2-0.5,1-1.8,3.5-2.4c2.9-0.6,6.5,1,6.6,1
		l0.3,0.2L55.7,52z M42.9,39c0,0-0.6,1,0.8,4.6c1.1,2.9,6.8,5.2,10,6.2l-2.8-12c-0.9-0.3-3.4-1.2-5.3-0.8c-2.1,0.5-2.4,1.5-2.4,1.6
		l-0.1,0.2L42.9,39C42.9,39,42.9,39,42.9,39z"/>
</g>
<g>
	<path class="st3" d="M105.4,103c1-0.2,1.6-1.1,1.5-2.1c-0.3-4.7-0.6-18.3,3.7-26.6c1.1-2.2-3.1-13.9-3.7-19.3
		c-0.5-4.1,0.7-6.7,1.5-8c0.4-0.6,0.6-1.3,0.4-2c-1.2-5.4-6.7-29.4-9-37.5c-2-7.3-9.9-6-10.5-5.9c0,0,0,0-0.1,0
		C88.7,1.8,61.1,8.2,53.3,10c-7.6,1.7-6.5,9.5-6.4,10.1c0,0,0,0,0,0.1l16.2,69.1c0,0,0,0,0,0c0,0.2,1,4.6,3.1,13.6
		c2.1,9.2,8.6,7.8,8.7,7.7c0,0,0,0,0,0l5.9-1.4L105.4,103z"/>
	<path class="st2" d="M73.8,112.2c-3,0-7.4-1.8-9.1-9c-2.1-9.1-3.1-13.5-3.1-13.6L45.4,20.3c-0.6-3.6,0.2-10.1,7.5-11.8
		c7.5-1.7,33.2-7.6,35.9-8.2l0.3-0.1c3.6-0.6,10.3,0.1,12.2,7c2.2,7.9,7.4,30.7,9,37.5c0.2,1,0,2.1-0.6,3.1c-0.7,1-1.7,3.3-1.3,7
		c0.2,2.1,1.1,5.4,1.9,8.6c1.8,6.8,2.5,9.9,1.6,11.5c-4.2,8.1-3.8,21.8-3.6,25.8c0.1,1.7-1,3.3-2.7,3.7l-24.6,6.1l-6.1,1.4
		C74.7,112.1,74.3,112.2,73.8,112.2z M91.4,3c-0.8,0-1.4,0.1-1.6,0.1l-0.2,0c-2.7,0.6-28.4,6.5-36,8.2c-6.2,1.4-5.3,7.6-5.2,8.4
		l16.2,69.1c0,0.1,1,4.5,3.1,13.6c1.7,7.5,6.4,6.7,6.9,6.6l0,0l5.9-1.4l24.5-6.1c0.3-0.1,0.4-0.3,0.4-0.6
		c-0.3-5.4-0.5-18.8,3.9-27.4c0.3-1-1-6.1-1.9-9.4c-0.9-3.3-1.7-6.7-2-9.1c-0.5-4.6,0.8-7.6,1.7-8.9c0.2-0.3,0.3-0.6,0.2-0.8
		c-1.6-6.8-6.8-29.6-8.9-37.4C97.3,3.7,93.6,3,91.4,3z"/>
</g>
<g>
	<path class="st1" d="M86.9,107.9c-2.4,0.6-2.7,2.9-0.5,4.1c0.5,0.3,1.1,0.7,1.8,1c5.7,3.6,11.8,2.3,15.9,4.8
		c3.1,2,8.5,8.3,10.9,11.2c0.7,0.9,1.9,1.3,3,1l33.1-7.5c2.4-0.6,3.2-3.7,1.3-5.3c-7.6-6.5-22-18.9-22.7-21.8
		c-4.8-17.9-2.3-19.2-3.3-23.8c-0.7-2.9-2.3-6.6-2.7-7.3c0-0.1-0.1-0.2-0.1-0.3c-0.7-2.1-9.3-26.2-11.3-27.5
		c-1.8-1.1-3.7,1.7-4.2,2.5c-0.1,0.1-0.1,0.3-0.2,0.4c-0.5,1.3-3.2,8.7-2.2,13c1,4.6,5.1,17.5,4,20c0,0.1-0.1,0.2-0.1,0.3
		c-0.7,1.5-6,13.7-3.9,27.7c0.3,1.6-0.7,3.2-2.4,3.6L86.9,107.9z"/>
	<path class="st2" d="M117.3,131c-1.2,0-2.3-0.5-3-1.4c-2.2-2.7-7.7-9.1-10.7-11c-1.7-1.1-3.8-1.4-6.3-1.8c-3-0.5-6.4-1-9.6-3
		c-0.6-0.4-1.2-0.7-1.7-1c-1.3-0.8-2.1-2-1.9-3.2c0.2-1.2,1.2-2.2,2.7-2.5h0l16.4-3.8c1.1-0.3,1.9-1.4,1.7-2.6
		c-2.2-14.2,3.3-26.8,4-28.2c0-0.1,0.1-0.1,0.1-0.2l0-0.1c0.7-1.6-1.7-10.2-2.9-14.8c-0.5-1.9-0.9-3.5-1.2-4.6
		c-1-4.5,1.7-12,2.2-13.5c0.1-0.2,0.2-0.4,0.3-0.6c1.7-2.8,3.8-3.8,5.4-2.8c2,1.2,8.2,18,11.7,27.9c0,0.1,0,0.1,0.1,0.2
		c0.5,1,2.1,4.6,2.8,7.5c0.4,1.6,0.3,2.9,0.3,4.3c-0.1,3-0.2,7.4,3,19.4c0.4,1.5,6.5,7.8,22.5,21.3c1.1,1,1.6,2.5,1.3,3.9
		c-0.4,1.5-1.5,2.6-2.9,2.9l-33.1,7.5C117.9,131,117.6,131,117.3,131z M87.1,108.7L87.1,108.7c-0.7,0.2-1.2,0.6-1.3,1
		c-0.1,0.5,0.3,1,1,1.4c0.6,0.3,1.2,0.7,1.8,1.1c3,1.9,6,2.3,9,2.8c2.5,0.4,4.9,0.8,7,2c3.2,2,8.3,8,11.1,11.4
		c0.5,0.6,1.3,0.9,2.1,0.7l33.1-7.5c0.8-0.2,1.4-0.8,1.6-1.6c0.2-0.8-0.1-1.6-0.7-2.1c-14.7-12.4-22.4-19.9-23-22.2
		c-3.3-12.3-3.2-16.9-3.1-20c0-1.4,0.1-2.5-0.2-3.9c-0.7-2.8-2.3-6.4-2.6-7.1c-0.1-0.1-0.1-0.2-0.2-0.4c-5.2-14.7-9.8-26.1-10.9-27
		c-0.9-0.5-2.3,1.2-3,2.2c0,0.1-0.1,0.2-0.1,0.2c-0.3,0.8-3.1,8.4-2.2,12.4c0.3,1.1,0.7,2.7,1.2,4.6c2.1,7.8,3.6,14,2.8,16
		c0,0.1-0.1,0.2-0.1,0.2c-0.7,1.4-6,13.5-3.9,27.3c0.3,2.1-1,4.2-3,4.6L87.1,108.7z"/>
</g>
<g>
	<path class="st1" d="M61,66.6c-1,1.2-5.3,5.7-8.6,1.5c-2.5-3.3,0.1-6.6,1.1-7.7c3.8-4.4,6.7-3.1,7.6-2.6
		C65.9,60.6,61.9,65.4,61,66.6z"/>
	<path class="st2" d="M55.6,70.6C55.6,70.6,55.6,70.6,55.6,70.6c-1.5,0-2.7-0.7-3.8-2.1c-1.9-2.5-1.5-5.6,1.1-8.7
		c4.1-4.7,7.3-3.5,8.6-2.7c1.4,0.9,2.3,2,2.6,3.4c0.5,2.7-1.6,5.4-2.4,6.4L61.6,67C61.1,67.6,58.5,70.6,55.6,70.6z M59,57.9
		c-1.2,0-2.9,0.6-4.9,2.9c-1.5,1.7-3,4.3-1.1,6.8c0.8,1,1.6,1.5,2.5,1.5c0,0,0,0,0,0c2.3,0,4.5-2.6,4.8-3l0.1-0.1
		c0.7-0.9,2.5-3.2,2.1-5.3c-0.2-0.9-0.8-1.7-1.9-2.4C60.4,58.1,59.8,57.9,59,57.9z"/>
</g>
<g>
	<path class="st1" d="M63.2,76.5c-1,1.2-5.4,5.1-8.5,1.5c-2.6-3.1,0.6-6.3,1.5-7.5c3.8-4.4,6.3-3.4,7.2-2.9
		C68.1,70.5,64.2,75.3,63.2,76.5z"/>
	<path class="st2" d="M57.8,80.2c-1.4,0-2.6-0.6-3.6-1.7c-2.9-3.4,0.3-7.1,1.4-8.3l0.2-0.2c4-4.5,6.8-3.8,8.1-3
		c1.5,0.9,2.3,2,2.5,3.4c0.4,2.7-1.7,5.4-2.6,6.5C63.1,77.8,60.6,80.2,57.8,80.2C57.8,80.2,57.8,80.2,57.8,80.2z M61.7,67.9
		c-1.4,0-3.1,1.1-4.9,3.1l-0.2,0.2c-1.7,1.9-3.2,4.2-1.4,6.3c0.7,0.8,1.6,1.2,2.5,1.2c2,0,4.1-1.8,4.8-2.7l0,0
		c0.6-0.7,2.6-3.1,2.2-5.3c-0.2-1-0.8-1.7-1.8-2.4C62.6,68.1,62.2,67.9,61.7,67.9z"/>
</g>
<g>
	<path class="st1" d="M65.8,85.9c-1,1.2-4.7,3.8-7.3,1.7c-3.3-2.8-0.7-6.6,0.3-7.7c3.8-4.4,6.4-3.3,7.4-2.7
		C71.1,80.2,66.7,84.8,65.8,85.9z"/>
	<path class="st2" d="M60.8,89.2c-1,0-2-0.3-2.8-1c-1.2-1-1.8-2.2-1.9-3.6c-0.2-2.7,1.9-5,2.2-5.3c4-4.6,6.9-3.7,8.3-2.8
		c1.5,0.9,2.3,2.1,2.5,3.5c0.4,2.7-1.9,5.3-2.8,6.3l-0.1,0.1c-0.8,1-3,2.5-5.1,2.7C61.1,89.2,60.9,89.2,60.8,89.2z M64.3,77.3
		c-1.4,0-3.1,1-4.9,3c-0.7,0.7-1.9,2.5-1.8,4.2c0.1,1,0.5,1.8,1.3,2.5c0.6,0.5,1.3,0.7,2.1,0.6c1.7-0.2,3.5-1.5,4.1-2.2l0.1-0.1
		c0.7-0.8,2.7-3,2.4-5.1c-0.1-1-0.7-1.8-1.9-2.5C65.4,77.5,64.8,77.3,64.3,77.3z"/>
</g>
<path class="st4" d="M92.6,68.4l-11.9,2.8l-0.3-1.3l6-1.4l5.9-1.4L92.6,68.4z"/>
<g>
	<rect x="82.1" y="38.8" transform="matrix(0.9737 -0.2278 0.2278 0.9737 -10.0824 20.318)" class="st4" width="1.8" height="30"/>
</g>
<g>
	<path class="st4" d="M74,41.2c-0.4,0-0.8-0.1-1.1-0.4c-0.4-0.3-0.7-0.9-0.6-1.4v0l0.2-8.3c0-0.8,0.6-1.5,1.4-1.7l6.6-1.5
		c0.8-0.2,1.6,0.2,1.9,0.9l3.9,7.3c0.3,0.5,0.3,1,0,1.5s-0.7,0.9-1.2,1l-10.7,2.5C74.2,41.2,74.1,41.2,74,41.2z M73.7,39.5
		L73.7,39.5c0,0.1,0.1,0.2,0.1,0.2c0,0,0.1,0.1,0.2,0l10.7-2.5c0.1,0,0.2-0.1,0.2-0.1s0-0.1,0-0.2L81,29.6c-0.1-0.1-0.2-0.2-0.3-0.1
		L74.1,31c-0.1,0-0.2,0.1-0.2,0.2L73.7,39.5z"/>
</g>
<g>
	<rect x="54.8" y="14.5" transform="matrix(0.9728 -0.2315 0.2315 0.9728 -1.5681 16.5802)" class="st4" width="30.1" height="1"/>
</g>
<g>
	<path class="st5" d="M97.7,84.4l-13.1,3.1c-1.6,0.4-3.2-0.6-3.5-2.2c-0.4-1.6,0.6-3.2,2.2-3.6l13.1-3.1c1.6-0.4,3.2,0.6,3.5,2.2
		C100.3,82.4,99.3,84,97.7,84.4z"/>
	<path class="st5" d="M83.9,88.2c-0.7,0-1.3-0.2-1.9-0.5c-0.9-0.5-1.5-1.4-1.7-2.3c-0.5-2,0.7-4,2.8-4.5l13.1-3.1
		c0.9-0.2,1.9-0.1,2.8,0.4c0.9,0.5,1.5,1.4,1.7,2.3c0.5,2-0.7,4-2.8,4.5l0,0l-13.1,3.1C84.5,88.2,84.2,88.2,83.9,88.2z M97.1,79.2
		c-0.2,0-0.3,0-0.5,0.1l-13.1,3.1c-1.2,0.3-1.9,1.5-1.7,2.6c0.1,0.6,0.5,1.1,1,1.4c0.5,0.3,1.1,0.4,1.6,0.2l13.1-3.1
		c1.2-0.3,1.9-1.5,1.7-2.6c-0.1-0.6-0.5-1.1-1-1.4C97.8,79.3,97.5,79.2,97.1,79.2z"/>
</g>
</svg>
