<?xml version="1.0" encoding="utf-8"?>
<!-- Generator: Adobe Illustrator 27.1.1, SVG Export Plug-In . SVG Version: 6.00 Build 0)  -->
<svg version="1.1" id="Lager_1" xmlns="http://www.w3.org/2000/svg" xmlns:xlink="http://www.w3.org/1999/xlink" x="0px" y="0px"
	 viewBox="0 0 302 14" style="enable-background:new 0 0 302 14;" xml:space="preserve">
<style type="text/css">
	.st0{fill:#FF8900;}
</style>
<g>
	<path class="st0" d="M301,14c-7.9,0-11.8-3.2-15.6-6.2c-3.7-3-7.2-5.8-14.4-5.8c-7.1,0-10.7,2.8-14.4,5.8
		c-3.8,3.1-7.8,6.2-15.6,6.2c-7.8,0-11.8-3.2-15.6-6.2c-3.7-3-7.2-5.8-14.4-5.8s-10.7,2.8-14.4,5.8c-3.8,3.1-7.8,6.2-15.6,6.2
		c-7.9,0-11.8-3.2-15.6-6.2c-3.7-3-7.2-5.8-14.4-5.8s-10.7,2.8-14.4,5.8c-3.8,3.1-7.8,6.2-15.6,6.2s-11.8-3.2-15.6-6.2
		C101.7,4.8,98.2,2,91,2S80.4,4.8,76.6,7.8C72.8,10.8,68.9,14,61,14c-7.9,0-11.8-3.2-15.6-6.2C41.7,4.8,38.2,2,31,2
		c-7.2,0-10.7,2.8-14.4,5.8C12.8,10.8,8.9,14,1,14c-0.6,0-1-0.4-1-1s0.4-1,1-1c7.2,0,10.7-2.8,14.4-5.8C19.2,3.2,23.2,0,31,0
		s11.8,3.2,15.6,6.2c3.7,3,7.2,5.8,14.4,5.8c7.1,0,10.7-2.8,14.4-5.8C79.2,3.2,83.2,0,91,0c7.9,0,11.8,3.2,15.6,6.2
		c3.7,3,7.2,5.8,14.4,5.8c7.1,0,10.7-2.8,14.4-5.8C139.2,3.2,143.2,0,151,0c7.9,0,11.8,3.2,15.6,6.2c3.7,3,7.2,5.8,14.4,5.8
		c7.1,0,10.7-2.8,14.4-5.8C199.2,3.2,203.2,0,211,0s11.8,3.2,15.6,6.2c3.7,3,7.2,5.8,14.4,5.8c7.1,0,10.7-2.8,14.4-5.8
		C259.2,3.2,263.2,0,271,0c7.9,0,11.8,3.2,15.6,6.2c3.7,3,7.2,5.8,14.4,5.8c0.6,0,1,0.4,1,1S301.6,14,301,14z"/>
</g>
</svg>
