<?xml version="1.0" encoding="utf-8"?>
<!-- Generator: Adobe Illustrator 27.1.1, SVG Export Plug-In . SVG Version: 6.00 Build 0)  -->
<svg version="1.1" id="Lager_1" xmlns="http://www.w3.org/2000/svg" xmlns:xlink="http://www.w3.org/1999/xlink" x="0px" y="0px"
	 viewBox="0 0 102 12" style="enable-background:new 0 0 102 12;" xml:space="preserve">
<style type="text/css">
	.st0{fill:#FF8800;}
</style>
<g>
	<path class="st0" d="M101,12c-5.4,0-8.1-2.7-10.7-5.3C87.9,4.3,85.6,2,81,2s-6.9,2.3-9.3,4.7C69.1,9.3,66.4,12,61,12
		c-5.4,0-8.1-2.7-10.7-5.3C47.9,4.3,45.6,2,41,2c-4.6,0-6.9,2.3-9.3,4.7C29.1,9.3,26.4,12,21,12s-8.1-2.7-10.7-5.3
		C7.9,4.3,5.6,2,1,2C0.4,2,0,1.6,0,1s0.4-1,1-1c5.4,0,8.1,2.7,10.7,5.3C14.1,7.7,16.4,10,21,10s6.9-2.3,9.3-4.7
		C32.9,2.7,35.6,0,41,0c5.4,0,8.1,2.7,10.7,5.3C54.1,7.7,56.4,10,61,10c4.6,0,6.9-2.3,9.3-4.7C72.9,2.7,75.6,0,81,0
		s8.1,2.7,10.7,5.3c2.4,2.4,4.7,4.7,9.3,4.7c0.6,0,1,0.4,1,1S101.6,12,101,12z"/>
</g>
</svg>
