<?xml version="1.0" encoding="utf-8"?>
<!-- Generator: Adobe Illustrator 27.1.1, SVG Export Plug-In . SVG Version: 6.00 Build 0)  -->
<svg version="1.1" id="Lager_1" xmlns="http://www.w3.org/2000/svg" xmlns:xlink="http://www.w3.org/1999/xlink" x="0px" y="0px"
	 viewBox="0 0 222 14" style="enable-background:new 0 0 222 14;" xml:space="preserve">
<style type="text/css">
	.st0{fill:#FF8800;}
</style>
<g>
	<path class="st0" d="M221,14c-7.2,0-10.9-3.2-14.4-6.2c-3.4-3-6.6-5.8-13.1-5.8c-6.5,0-9.7,2.8-13.1,5.8c-3.5,3.1-7.2,6.2-14.4,6.2
		c-7.2,0-10.9-3.2-14.4-6.2c-3.4-3-6.6-5.8-13.1-5.8c-6.5,0-9.7,2.8-13.1,5.8c-3.5,3.1-7.2,6.2-14.4,6.2c-7.2,0-10.9-3.2-14.4-6.2
		C93.2,4.8,90,2,83.5,2C77,2,73.8,4.8,70.4,7.8C66.9,10.8,63.3,14,56,14c-7.3,0-10.9-3.2-14.4-6.2C38.2,4.8,35,2,28.5,2
		C22,2,18.8,4.8,15.4,7.8C11.9,10.8,8.3,14,1,14c-0.6,0-1-0.4-1-1s0.4-1,1-1c6.5,0,9.7-2.8,13.1-5.8C17.6,3.2,21.3,0,28.5,0
		s10.9,3.2,14.4,6.2c3.4,3,6.6,5.8,13.1,5.8c6.5,0,9.7-2.8,13.1-5.8C72.6,3.2,76.3,0,83.5,0c7.2,0,10.9,3.2,14.4,6.2
		c3.4,3,6.6,5.8,13.1,5.8c6.5,0,9.7-2.8,13.1-5.8c3.5-3.1,7.2-6.2,14.4-6.2c7.2,0,10.9,3.2,14.4,6.2c3.4,3,6.6,5.8,13.1,5.8
		s9.7-2.8,13.1-5.8c3.5-3.1,7.2-6.2,14.4-6.2s10.9,3.2,14.4,6.2c3.4,3,6.6,5.8,13.1,5.8c0.6,0,1,0.4,1,1S221.6,14,221,14z"/>
</g>
</svg>
