<?xml version="1.0" encoding="utf-8"?>
<!-- Generator: Adobe Illustrator 27.1.1, SVG Export Plug-In . SVG Version: 6.00 Build 0)  -->
<svg version="1.1" id="Lager_1" xmlns="http://www.w3.org/2000/svg" xmlns:xlink="http://www.w3.org/1999/xlink" x="0px" y="0px"
	 viewBox="0 0 226 14" style="enable-background:new 0 0 226 14;" xml:space="preserve">
<style type="text/css">
	.st0{fill:#FF8800;}
</style>
<g>
	<path class="st0" d="M225,14c-7.4,0-11.1-3.2-14.6-6.2c-3.5-3-6.7-5.8-13.3-5.8s-9.9,2.8-13.3,5.8c-3.6,3.1-7.3,6.2-14.6,6.2
		c-7.4,0-11.1-3.2-14.7-6.2c-3.5-3-6.7-5.8-13.3-5.8s-9.9,2.8-13.3,5.8c-3.6,3.1-7.3,6.2-14.7,6.2c-7.4,0-11.1-3.2-14.7-6.2
		C94.9,4.8,91.6,2,85,2c-6.6,0-9.9,2.8-13.3,5.8C68.1,10.8,64.4,14,57,14c-7.4,0-11.1-3.2-14.7-6.2C38.9,4.8,35.6,2,29,2
		c-6.6,0-9.9,2.8-13.4,5.8C12.1,10.8,8.4,14,1,14c-0.6,0-1-0.4-1-1s0.4-1,1-1c6.6,0,9.9-2.8,13.4-5.8C17.9,3.2,21.6,0,29,0
		c7.4,0,11.1,3.2,14.7,6.2c3.5,3,6.7,5.8,13.4,5.8c6.6,0,9.9-2.8,13.3-5.8C73.9,3.2,77.6,0,85,0c7.4,0,11.1,3.2,14.7,6.2
		c3.5,3,6.7,5.8,13.3,5.8s9.9-2.8,13.3-5.8C129.9,3.2,133.6,0,141,0c7.4,0,11.1,3.2,14.7,6.2c3.5,3,6.7,5.8,13.3,5.8
		c6.6,0,9.9-2.8,13.3-5.8C185.9,3.2,189.6,0,197,0c7.4,0,11.1,3.2,14.6,6.2c3.5,3,6.7,5.8,13.3,5.8c0.6,0,1,0.4,1,1S225.6,14,225,14
		z"/>
</g>
</svg>
