<?xml version="1.0" encoding="utf-8"?>
<!-- Generator: Adobe Illustrator 27.1.1, SVG Export Plug-In . SVG Version: 6.00 Build 0)  -->
<svg version="1.1" id="Lager_1" xmlns="http://www.w3.org/2000/svg" xmlns:xlink="http://www.w3.org/1999/xlink" x="0px" y="0px"
	 viewBox="0 0 207 14" style="enable-background:new 0 0 207 14;" xml:space="preserve">
<style type="text/css">
	.st0{fill:#FF8800;}
</style>
<g>
	<path class="st0" d="M206,14c-6.8,0-10.2-3.2-13.5-6.3c-3.1-2.9-6.1-5.7-12.1-5.7s-9,2.8-12.1,5.7c-3.3,3.1-6.7,6.3-13.5,6.3
		c-6.8,0-10.2-3.2-13.5-6.3c-3.1-2.9-6.1-5.7-12.1-5.7c-6,0-9,2.8-12.1,5.7c-3.3,3.1-6.7,6.3-13.5,6.3S93.3,10.8,90,7.7
		C86.9,4.8,83.9,2,77.9,2c-6,0-9,2.8-12.1,5.7c-3.3,3.1-6.7,6.3-13.5,6.3c-6.8,0-10.2-3.2-13.5-6.3C35.6,4.8,32.6,2,26.6,2
		s-9,2.8-12.1,5.7C11.2,10.8,7.8,14,1,14c-0.6,0-1-0.4-1-1s0.4-1,1-1c6,0,9-2.8,12.1-5.7C16.4,3.2,19.8,0,26.6,0
		c6.8,0,10.2,3.2,13.5,6.3c3.1,2.9,6.1,5.7,12.1,5.7c6,0,9-2.8,12.1-5.7C67.7,3.2,71.1,0,77.9,0c6.8,0,10.2,3.2,13.5,6.3
		c3.1,2.9,6.1,5.7,12.1,5.7s9-2.8,12.1-5.7c3.3-3.1,6.7-6.3,13.5-6.3s10.2,3.2,13.5,6.3c3.1,2.9,6.1,5.7,12.1,5.7
		c6,0,9-2.8,12.1-5.7c3.3-3.1,6.7-6.3,13.5-6.3s10.2,3.2,13.5,6.3C197,9.2,200,12,206,12c0.6,0,1,0.4,1,1S206.6,14,206,14z"/>
</g>
</svg>
